<svg width="20" height="20" viewBox="0 0 20 20" fill="none" xmlns="http://www.w3.org/2000/svg">
<path d="M2.91675 15.625C2.57508 15.625 2.29175 15.3417 2.29175 15V5.83332C2.29175 2.15832 3.40841 1.04166 7.08341 1.04166H12.9167C16.5917 1.04166 17.7084 2.15832 17.7084 5.83332V14.1667C17.7084 14.3 17.7084 14.425 17.7001 14.5583C17.6751 14.9 17.3667 15.1667 17.0334 15.1417C16.6917 15.1167 16.4251 14.8167 16.4501 14.475C16.4584 14.375 16.4584 14.2667 16.4584 14.1667V5.83332C16.4584 2.85832 15.9001 2.29166 12.9167 2.29166H7.08341C4.10008 2.29166 3.54175 2.85832 3.54175 5.83332V15C3.54175 15.3417 3.25841 15.625 2.91675 15.625Z" fill="#666666"/>
<path d="M14.1667 18.9583H5.83341C3.88341 18.9583 2.29175 17.3667 2.29175 15.4167V14.875C2.29175 13.2167 3.64175 11.875 5.29175 11.875H17.0834C17.4251 11.875 17.7084 12.1583 17.7084 12.5V15.4167C17.7084 17.3667 16.1167 18.9583 14.1667 18.9583ZM5.29175 13.125C4.32508 13.125 3.54175 13.9083 3.54175 14.875V15.4167C3.54175 16.6833 4.56675 17.7083 5.83341 17.7083H14.1667C15.4334 17.7083 16.4584 16.6833 16.4584 15.4167V13.125H5.29175Z" fill="#666666"/>
<path d="M13.3334 6.45834H6.66675C6.32508 6.45834 6.04175 6.17501 6.04175 5.83334C6.04175 5.49168 6.32508 5.20834 6.66675 5.20834H13.3334C13.6751 5.20834 13.9584 5.49168 13.9584 5.83334C13.9584 6.17501 13.6751 6.45834 13.3334 6.45834Z" fill="#666666"/>
<path d="M10.8334 9.375H6.66675C6.32508 9.375 6.04175 9.09167 6.04175 8.75C6.04175 8.40833 6.32508 8.125 6.66675 8.125H10.8334C11.1751 8.125 11.4584 8.40833 11.4584 8.75C11.4584 9.09167 11.1751 9.375 10.8334 9.375Z" fill="#666666"/>
</svg>
