<svg width="20" height="20" viewBox="0 0 20 20" fill="none" xmlns="http://www.w3.org/2000/svg">
<path d="M10 13.125C6.55 13.125 3.75 10.4167 3.75 7.08333C3.75 3.75 6.55 1.04166 10 1.04166C13.45 1.04166 16.25 3.75 16.25 7.08333C16.25 10.4167 13.45 13.125 10 13.125ZM10 2.29166C7.24167 2.29166 5 4.44166 5 7.08333C5 9.725 7.24167 11.875 10 11.875C12.7583 11.875 15 9.725 15 7.08333C15 4.44166 12.7583 2.29166 10 2.29166Z" fill="#666666"/>
<path d="M13.0166 18.9583C12.7833 18.9583 12.5499 18.9 12.3082 18.7916L10.0666 17.7333C10.0416 17.725 9.94992 17.725 9.91659 17.7333L7.6916 18.7833C7.19993 19.0166 6.68326 19.0083 6.28326 18.75C5.8666 18.4833 5.62493 17.9916 5.63327 17.4083L5.64158 11.2583C5.64158 10.9166 5.90825 10.6166 6.26658 10.6333C6.60825 10.6333 6.89158 10.9166 6.89158 11.2583L6.88327 17.4083C6.88327 17.5916 6.93326 17.6833 6.95826 17.6916C6.97493 17.7 7.04993 17.7083 7.1666 17.65L9.39992 16.5916C9.75826 16.425 10.2499 16.425 10.6083 16.5916L12.8499 17.65C12.9666 17.7083 13.0416 17.7 13.0583 17.6916C13.0833 17.675 13.1333 17.5833 13.1333 17.4083V11.1083C13.1333 10.7666 13.4166 10.4833 13.7583 10.4833C14.0999 10.4833 14.3833 10.7666 14.3833 11.1083V17.4083C14.3833 18 14.1416 18.4833 13.7249 18.75C13.5083 18.8916 13.2666 18.9583 13.0166 18.9583Z" fill="#666666"/>
</svg>
