<svg width="59" height="59" viewBox="0 0 59 59" fill="none" xmlns="http://www.w3.org/2000/svg">
<path d="M29.961 40.839C17.7922 40.839 7.65161 37.0594 5.34692 32.0812C9.58755 45.0797 7.0063 57.1562 29.961 57.1562C52.9157 57.1562 50.3344 45.0797 54.575 32.0812C52.2704 37.0594 42.1297 40.839 29.961 40.839Z" fill="#3E4347"/>
<path d="M18.6219 18.8985C31.6203 15.3031 61.4891 20.7422 54.9438 33.0953C58.5391 37.1516 59.8297 41.4844 42.6828 41.2078C16.3172 47.3844 -5.43904 34.5703 4.14846 24.8906C1.84377 20.1891 6.91408 17.7922 18.6219 18.8985Z" fill="#6F7980"/>
<path d="M29.961 40.2859C41.4844 40.2859 51.0719 36.6906 53.2844 31.9891C53.4688 31.5281 53.561 31.0672 53.7454 30.6063C53.7454 30.3297 53.8376 30.1453 53.8376 29.8688C53.8376 24.1531 43.1438 19.5438 30.0532 19.5438C16.9625 19.5438 6.2688 24.1531 6.2688 29.8688C6.2688 30.1453 6.2688 30.3297 6.36099 30.6063C6.45317 31.0672 6.63755 31.5281 6.82192 31.9891C8.85005 36.6906 18.4375 40.2859 29.961 40.2859Z" fill="#3E4347"/>
<path d="M29.9608 40.2859C41.4843 40.2859 51.0718 36.6906 53.2843 31.9891C53.2843 31.8047 53.3765 31.7125 53.3765 31.5281C51.4405 26.6422 41.6687 22.9547 29.8687 22.9547C18.0687 22.9547 8.29678 26.6422 6.36084 31.5281C6.45303 31.7125 6.45303 31.8047 6.45303 31.9891C8.8499 36.6906 18.4374 40.2859 29.9608 40.2859Z" fill="#FBBF67"/>
<path d="M33.1874 28.025C28.578 27.9328 22.9546 31.6203 19.1749 31.3437C12.9062 30.8828 19.3593 33.925 23.7843 33.925C26.7343 33.925 28.7624 31.2515 30.3296 30.1453C32.5421 28.7625 37.9812 28.1172 33.1874 28.025Z" fill="#D33B23"/>
<path d="M19.5438 24.9828C18.3453 21.6641 11.4312 27.1031 17.3312 28.3016C18.2531 28.4859 20.5578 27.9328 19.5438 24.9828ZM32.9109 35.4C31.4359 31.3437 22.8625 38.0734 30.2375 39.4562C31.3437 39.6406 34.2016 38.9953 32.9109 35.4ZM34.4781 23.7844C33.0953 20.4656 24.5219 25.9047 31.8047 27.1031C32.8187 27.1953 35.6766 26.6422 34.4781 23.7844ZM48.5828 27.3797C48.0297 23.7844 37.0594 25.8125 44.6187 29.5922C45.725 30.1453 49.0437 30.6062 48.5828 27.3797Z" fill="#FF8736"/>
<path d="M13.9202 30.6063C12.9061 29.2234 11.4311 27.3797 10.878 28.3016C10.0483 29.5922 9.77177 32.1734 10.4171 32.2656C15.0265 33.1875 14.6577 31.7125 13.9202 30.6063ZM39.2718 28.025C37.6124 28.7625 36.5983 28.2094 35.8608 29.3156C34.1093 31.8047 40.1015 32.6344 41.2077 31.1594C42.0374 30.1453 40.378 27.5641 39.2718 28.025ZM40.6546 34.2016C39.4561 33.6484 39.7327 35.4922 37.889 34.0172C36.5983 33.0031 33.8327 35.5844 35.6765 37.3359C37.7046 39.2719 38.2577 37.4281 39.0874 37.6125C40.839 37.8891 43.8811 35.5844 40.6546 34.2016ZM20.3733 34.7547C19.2671 33.6484 17.5155 36.7828 18.1608 37.6125C19.5436 39.4563 24.5218 39.0875 25.8124 37.7047C27.4718 36.0453 23.0468 37.3359 20.3733 34.7547Z" fill="#89664C"/>
<path d="M16.1329 33.8328C16.1329 33.8328 16.2251 34.9391 16.4095 35.4C15.211 34.9391 15.211 32.8187 15.211 32.8187C15.211 32.8187 14.3813 33.2797 14.4735 34.1094C13.1829 33.0031 12.0767 33.5562 12.0767 33.5562C12.0767 33.5562 13.736 34.4781 14.0126 35.1234C13.0907 35.2156 12.5376 35.4922 12.1688 36.2297C12.1688 36.2297 14.0126 35.3078 15.3954 35.9531C14.8423 36.4141 15.1188 37.5203 15.1188 37.5203C17.3313 35.2156 18.7142 37.2437 19.7282 36.6906C18.8985 35.5844 17.7001 35.4 17.7001 35.4C17.2392 34.4781 16.1329 33.8328 16.1329 33.8328ZM26.0892 24.7984C24.9829 24.6141 23.8767 25.1672 23.8767 25.1672C23.8767 25.1672 24.8907 25.6281 25.3517 25.8125C24.3376 26.6422 22.4938 25.5359 22.4938 25.5359C22.4938 25.5359 22.4938 26.4578 23.2313 26.8266C21.6642 27.3797 21.4798 28.6703 21.4798 28.6703C21.4798 28.6703 23.1392 27.7484 23.7845 27.8406C23.3235 28.6703 23.3235 29.3156 23.8767 29.9609C23.8767 29.9609 24.061 27.9328 25.3517 27.1031C25.4438 27.8406 26.5501 28.1172 26.5501 28.1172C25.7204 25.075 28.2095 24.8906 28.2095 23.7844C26.9188 23.7844 26.0892 24.7984 26.0892 24.7984ZM47.5689 33.0953C48.0298 32.6344 49.9657 32.3578 49.9657 32.3578C49.9657 32.3578 49.136 31.4359 47.4767 31.8969C47.8454 31.1594 47.2923 30.4219 47.2923 30.4219C47.2923 30.4219 46.4626 32.3578 45.172 32.3578C45.5407 31.8969 46.0017 30.975 46.0017 30.975C46.0017 30.975 44.711 31.2516 43.9735 32.0812C43.9735 32.0812 42.7751 31.7125 41.6688 32.45C42.3142 33.3719 44.4345 31.9891 45.5407 34.9391C45.5407 34.9391 46.186 34.0172 45.9095 33.3719C47.3845 33.2797 48.7673 34.8469 48.7673 34.8469C48.7673 34.0172 48.3985 33.5562 47.5689 33.0953Z" fill="#699635"/>
<path opacity="0.6" d="M30.6984 10.5094C27.2874 7.00625 29.5921 1.84375 29.5921 1.84375C29.5921 1.84375 22.4015 8.66563 26.9187 13.3672C32.1734 18.8062 29.5921 22.125 29.5921 22.125C29.5921 22.125 36.0452 16.0406 30.6984 10.5094ZM20.5577 13.6438C17.9765 11.1547 19.728 7.375 19.728 7.375C19.728 7.375 14.3812 12.3531 17.7921 15.7641C21.7562 19.7281 19.728 22.125 19.728 22.125C19.728 22.125 24.5218 17.7 20.5577 13.6438ZM40.839 13.6438C38.2577 11.1547 40.0093 7.375 40.0093 7.375C40.0093 7.375 34.6624 12.3531 38.0734 15.7641C42.0374 19.7281 40.0093 22.125 40.0093 22.125C40.0093 22.125 44.803 17.7 40.839 13.6438Z" fill="#A6AEB0"/>
</svg>
