<svg width="44" height="44" viewBox="0 0 44 44" fill="none" xmlns="http://www.w3.org/2000/svg">
<path d="M22.0001 40.3517C32.1253 40.3517 40.3334 32.1436 40.3334 22.0183C40.3334 11.8931 32.1253 3.685 22.0001 3.685C11.8749 3.685 3.66675 11.8931 3.66675 22.0183C3.66675 32.1436 11.8749 40.3517 22.0001 40.3517Z" fill="#091515"/>
<path d="M22 12.7233C18.205 12.7233 15.125 15.8033 15.125 19.5983C15.125 23.32 18.04 26.345 21.9083 26.455C21.9633 26.455 22.0367 26.455 22.0733 26.455C22.11 26.455 22.165 26.455 22.2017 26.455C22.22 26.455 22.2383 26.455 22.2383 26.455C25.9417 26.3267 28.8567 23.32 28.875 19.5983C28.875 15.8033 25.795 12.7233 22 12.7233Z" fill="white"/>
<path d="M34.4301 35.4933C31.1667 38.5 26.8034 40.3517 22.0001 40.3517C17.1967 40.3517 12.8334 38.5 9.57007 35.4933C10.0101 33.825 11.2017 32.3033 12.9434 31.13C17.9484 27.7933 26.0884 27.7933 31.0567 31.13C32.8167 32.3033 33.9901 33.825 34.4301 35.4933Z" fill="white"/>
</svg>
