<svg width="20" height="20" viewBox="0 0 20 20" fill="none" xmlns="http://www.w3.org/2000/svg">
<path d="M10.0001 18.9583C5.05841 18.9583 1.04175 14.9417 1.04175 10C1.04175 5.05833 5.05841 1.04166 10.0001 1.04166C14.9417 1.04166 18.9584 5.05833 18.9584 10C18.9584 14.9417 14.9417 18.9583 10.0001 18.9583ZM10.0001 2.29166C5.75008 2.29166 2.29175 5.75 2.29175 10C2.29175 14.25 5.75008 17.7083 10.0001 17.7083C14.2501 17.7083 17.7084 14.25 17.7084 10C17.7084 5.75 14.2501 2.29166 10.0001 2.29166Z" fill="#666666"/>
<path d="M13.0916 13.275C12.9833 13.275 12.875 13.25 12.775 13.1833L10.1916 11.6417C9.54995 11.2583 9.07495 10.4167 9.07495 9.675V6.25833C9.07495 5.91666 9.35828 5.63333 9.69995 5.63333C10.0416 5.63333 10.325 5.91666 10.325 6.25833V9.675C10.325 9.975 10.575 10.4167 10.8333 10.5667L13.4166 12.1083C13.7166 12.2833 13.8083 12.6667 13.6333 12.9667C13.5083 13.1667 13.3 13.275 13.0916 13.275Z" fill="#666666"/>
</svg>
