<svg width="20" height="20" viewBox="0 0 20 20" fill="none" xmlns="http://www.w3.org/2000/svg">
<path d="M10.0001 18.0417C9.74175 18.0417 9.49175 18.0083 9.28341 17.9333C6.10008 16.8417 1.04175 12.9667 1.04175 7.24168C1.04175 4.32501 3.40008 1.95834 6.30008 1.95834C7.70841 1.95834 9.02508 2.50834 10.0001 3.49168C10.9751 2.50834 12.2917 1.95834 13.7001 1.95834C16.6001 1.95834 18.9584 4.33334 18.9584 7.24168C18.9584 12.975 13.9001 16.8417 10.7167 17.9333C10.5084 18.0083 10.2584 18.0417 10.0001 18.0417ZM6.30008 3.20834C4.09175 3.20834 2.29175 5.01668 2.29175 7.24168C2.29175 12.9333 7.76675 16.1 9.69175 16.7583C9.84175 16.8083 10.1667 16.8083 10.3167 16.7583C12.2334 16.1 17.7167 12.9417 17.7167 7.24168C17.7167 5.01668 15.9167 3.20834 13.7084 3.20834C12.4417 3.20834 11.2667 3.80001 10.5084 4.82501C10.2751 5.14168 9.74175 5.14168 9.50841 4.82501C8.73341 3.79168 7.56675 3.20834 6.30008 3.20834Z" fill="#666666"/>
</svg>
